<svg width="14" height="15" viewBox="0 0 14 15" fill="none" xmlns="http://www.w3.org/2000/svg">
<path fill-rule="evenodd" clip-rule="evenodd" d="M11.8319 12.332C14.5005 9.6634 14.5005 5.33677 11.8319 2.66819C9.16334 -0.000398636 4.83671 -0.000398636 2.16813 2.66819C-0.50046 5.33676 -0.50046 9.66339 2.16813 12.332C4.8367 15.0006 9.16333 15.0006 11.8319 12.332ZM7.75002 3.16675C7.75002 2.75253 7.41423 2.41675 7.00002 2.41675C6.58581 2.41675 6.25002 2.75253 6.25002 3.16675V3.50247C5.04393 3.55733 4.08335 4.55214 4.08335 5.7718C4.08335 6.81347 4.79185 7.7214 5.80213 7.97477L5.80219 7.97479L7.83302 8.48394L7.83308 8.48395C8.17621 8.57004 8.41669 8.87832 8.41669 9.23197C8.41669 9.65819 8.07093 10.0037 7.64496 10.0037H7.07407C7.04971 10.0013 7.02501 10.0001 7.00002 10.0001C6.97503 10.0001 6.95033 10.0013 6.92597 10.0037H6.45835C5.97484 10.0037 5.58335 9.6122 5.58335 9.12869C5.58335 8.71448 5.24757 8.37869 4.83335 8.37869C4.41914 8.37869 4.08335 8.71448 4.08335 9.12869C4.08335 10.3704 5.0357 11.3892 6.25002 11.4947V11.8334C6.25002 12.2476 6.58581 12.5834 7.00002 12.5834C7.41423 12.5834 7.75002 12.2476 7.75002 11.8334V11.5013C8.95525 11.4464 9.91669 10.4518 9.91669 9.23197C9.91669 8.19031 9.20819 7.28238 8.19792 7.029L8.19785 7.02898L6.16703 6.51983L6.16696 6.51982C5.82383 6.43373 5.58335 6.12545 5.58335 5.7718C5.58335 5.34535 5.92862 5.00008 6.35508 5.00008H7.00002H7.54169C8.0252 5.00008 8.41669 5.39157 8.41669 5.87508C8.41669 6.28929 8.75247 6.62508 9.16669 6.62508C9.5809 6.62508 9.91669 6.28929 9.91669 5.87508C9.91669 4.63334 8.96434 3.61456 7.75002 3.50909V3.16675Z" fill="#FFDF5C"/>
</svg>
