<svg width="18" height="18" viewBox="0 0 18 18" fill="none" xmlns="http://www.w3.org/2000/svg">
<path fill-rule="evenodd" clip-rule="evenodd" d="M3.22217 7.43123V7.2932C3.22217 4.24703 5.80884 1.77783 8.99995 1.77783V1.77783C12.191 1.77783 14.7777 4.24703 14.7777 7.2932V7.43123C14.7777 10.2086 11.094 14.3894 9.60942 15.9623C9.2824 16.3089 8.71749 16.3089 8.39047 15.9623C6.90589 14.3894 3.22217 10.2086 3.22217 7.43123Z" stroke="#4D5971" stroke-width="1.4468" stroke-linecap="round" stroke-linejoin="round"/>
<path d="M7.55554 6.84684C7.55554 7.63758 8.20193 8.27805 8.99999 8.27805V8.27805C9.79804 8.27805 10.4444 7.63758 10.4444 6.84684V6.82037C10.4444 6.02962 9.79804 5.38916 8.99999 5.38916V5.38916C8.20193 5.38916 7.55554 6.02962 7.55554 6.82037" stroke="#4D5971" stroke-width="1.4468" stroke-linecap="round" stroke-linejoin="round"/>
</svg>
