<svg width="14" height="16" viewBox="0 0 14 16" fill="none" xmlns="http://www.w3.org/2000/svg">
<path fill-rule="evenodd" clip-rule="evenodd" d="M0.928711 5.89425V6.03758C0.928711 8.92175 4.79966 13.2634 6.35969 14.8967C6.70333 15.2567 7.29695 15.2567 7.64058 14.8967C9.20062 13.2634 13.0716 8.92175 13.0716 6.03758V5.89425C13.0716 2.73091 10.3534 0.166748 7.00014 0.166748C3.64685 0.166748 0.928711 2.73091 0.928711 5.89425ZM7 7.30961C6.01339 7.30961 5.21429 6.51782 5.21429 5.54026V5.50752C5.21429 4.52996 6.01339 3.73818 7 3.73818C7.98661 3.73818 8.78571 4.52996 8.78571 5.50752V5.54026C8.78571 6.51782 7.98661 7.30961 7 7.30961Z" fill="white"/>
</svg>
