<svg width="22" height="22" viewBox="0 0 22 22" fill="none" xmlns="http://www.w3.org/2000/svg">
<path fill-rule="evenodd" clip-rule="evenodd" d="M3.77765 9.03916V8.86663C3.77765 5.05891 7.01099 1.97241 10.9999 1.97241V1.97241C14.9887 1.97241 18.2221 5.05891 18.2221 8.86663V9.03916C18.2221 12.5108 13.6174 17.7369 11.7617 19.703C11.3529 20.1363 10.6468 20.1363 10.238 19.703C8.3823 17.7369 3.77765 12.5108 3.77765 9.03916Z" stroke="#00BAB5" stroke-width="1.4468" stroke-linecap="round" stroke-linejoin="round"/>
<path d="M9.19434 8.30819C9.19434 9.29661 10.0023 10.0972 10.9999 10.0972V10.0972C11.9975 10.0972 12.8054 9.29661 12.8054 8.30819V8.27509C12.8054 7.28666 11.9975 6.48608 10.9999 6.48608V6.48608C10.0023 6.48608 9.19434 7.28666 9.19434 8.27509" stroke="#00BAB5" stroke-width="1.4468" stroke-linecap="round" stroke-linejoin="round"/>
</svg>
